<svg xmlns="http://www.w3.org/2000/svg" style="isolation:isolate" viewBox="0 0 450 280" width="600" height="280pt"><g fill="#FFF"><path d="M35.247 277a171.85 171.85 0 01-18.149-.968 92.18 92.18 0 01-11.611-1.993v-28.512a101.806 101.806 0 0020.598 2.089c2.089 0 4.169-.144 6.242-.424a27.815 27.815 0 004.825-1.105 22.755 22.755 0 004.625-2.104 17.592 17.592 0 003.529-2.817 18.517 18.517 0 002.609-3.441 22.614 22.614 0 001.969-4.281 27.601 27.601 0 001.152-4.817c.288-2.009.432-4.041.432-6.082V62.525h44.196v166.126c0 2.104-.104 4.209-.304 6.305a51.39 51.39 0 01-.848 5.538 47.576 47.576 0 01-1.305 4.945 43.008 43.008 0 01-1.728 4.433 39.91 39.91 0 01-2.153 4.058 38.636 38.636 0 01-2.568 3.729 40.486 40.486 0 01-3.041 3.457 44.304 44.304 0 01-7.37 5.969 47.907 47.907 0 01-4.257 2.457 53.041 53.041 0 01-4.794 2.185 65.367 65.367 0 01-5.449 1.88 75.187 75.187 0 01-5.322 1.344 84.257 84.257 0 01-9.594 1.489c-3.881.368-7.778.56-11.684.56zM248.44 218.064h-29.272v-90.617a66.12 66.12 0 00-.465-7.874 40.18 40.18 0 00-1.144-5.914 31.18 31.18 0 00-2.112-5.546 21.165 21.165 0 00-2.609-4.017 17.835 17.835 0 00-1.513-1.608 18.338 18.338 0 00-1.704-1.417 20.39 20.39 0 00-1.945-1.24c-.728-.4-1.48-.76-2.256-1.08a25.464 25.464 0 00-5.306-1.521 43.965 43.965 0 00-7.386-.624c-2.584 0-5.161.168-7.73.496-2.04.264-4.065.689-6.041 1.265-.561.168-1.113.344-1.665.536-.528.184-1.04.384-1.56.592a28.865 28.865 0 00-3.249 1.576 24.127 24.127 0 00-2.801 1.833 23.765 23.765 0 00-2.449 2.112 23.06 23.06 0 00-2.152 2.425 27.255 27.255 0 00-3.737 6.442 56.463 56.463 0 00-3.121 10.355 78.744 78.744 0 00-1.233 8.746 135.935 135.935 0 00-.496 11.699v73.381h-52.198V62.349h40.259l6.482 19.405h.24a46.856 46.856 0 013.833-4.409 49.236 49.236 0 015.233-4.609 51.99 51.99 0 016.146-4.018 61.97 61.97 0 017.25-3.448 73.157 73.157 0 017.066-2.401 83.324 83.324 0 017.746-1.809 90.57 90.57 0 018.563-1.152c3.168-.272 6.337-.408 9.522-.408 4.121 0 8.234.208 12.34.624a82.696 82.696 0 0113.115 2.401c.928.248 1.849.52 2.769.808a61.359 61.359 0 015.914 2.193 52.675 52.675 0 015.225 2.568 50.897 50.897 0 014.625 2.937 45.105 45.105 0 014.113 3.297 45.797 45.797 0 013.689 3.697 44.546 44.546 0 013.209 4.041 43.512 43.512 0 012.769 4.425 47.85 47.85 0 012.345 4.874 52.94 52.94 0 011.904 5.377 61.076 61.076 0 011.441 5.994c.424 2.233.736 4.489.936 6.754a86.91 86.91 0 01.336 7.642v71.784l-22.926 29.148z"/><path d="M259.203 217.856l61.335-79.366-58.197-75.942h52.131l37.129 52.308 37.466-52.308h52.114l-58.845 75.942L444 217.856h-52.265l-40.125-56.161-40.293 56.161h-52.114z"/></g></svg>